<mxfile host="Electron" modified="2023-09-03T12:47:05.890Z" agent="Mozilla/5.0 (Macintosh; Intel Mac OS X 10_15_7) AppleWebKit/537.36 (KHTML, like Gecko) draw.io/21.6.8 Chrome/114.0.5735.289 Electron/25.5.0 Safari/537.36" etag="QCNuGlp2b1h2TPoTjW4I" version="21.6.8" type="device">
  <diagram id="XTGxo7vzB7T1hI5HG_JY" name="第 1 页">
    <mxGraphModel dx="1036" dy="756" grid="1" gridSize="10" guides="1" tooltips="1" connect="1" arrows="1" fold="1" page="1" pageScale="1" pageWidth="1169" pageHeight="827" math="0" shadow="0">
      <root>
        <mxCell id="0" />
        <mxCell id="1" parent="0" />
        <mxCell id="8_euKS4hgkdlGo7dpll--3" value="" style="rounded=0;whiteSpace=wrap;html=1;" parent="1" vertex="1">
          <mxGeometry x="880" y="221" width="100" height="299" as="geometry" />
        </mxCell>
        <mxCell id="8_euKS4hgkdlGo7dpll--1" value="" style="rounded=0;whiteSpace=wrap;html=1;" parent="1" vertex="1">
          <mxGeometry x="140" y="221" width="140" height="299" as="geometry" />
        </mxCell>
        <mxCell id="ECE6Y4JwWaJ8Y2mSEOKN-17" value="" style="rounded=0;whiteSpace=wrap;html=1;" parent="1" vertex="1">
          <mxGeometry x="730" y="221" width="150" height="299" as="geometry" />
        </mxCell>
        <mxCell id="ECE6Y4JwWaJ8Y2mSEOKN-10" value="" style="rounded=0;whiteSpace=wrap;html=1;" parent="1" vertex="1">
          <mxGeometry x="280" y="221" width="140" height="299" as="geometry" />
        </mxCell>
        <mxCell id="ECE6Y4JwWaJ8Y2mSEOKN-7" value="Spacy&lt;br&gt;" style="shape=cylinder3;whiteSpace=wrap;html=1;boundedLbl=1;backgroundOutline=1;size=15;" parent="1" vertex="1">
          <mxGeometry x="313.5" y="400" width="65" height="90" as="geometry" />
        </mxCell>
        <mxCell id="ECE6Y4JwWaJ8Y2mSEOKN-11" value="" style="rounded=0;whiteSpace=wrap;html=1;" parent="1" vertex="1">
          <mxGeometry x="420" y="221" width="310" height="299" as="geometry" />
        </mxCell>
        <mxCell id="ECE6Y4JwWaJ8Y2mSEOKN-12" value="pre-processing" style="rounded=0;whiteSpace=wrap;html=1;" parent="1" vertex="1">
          <mxGeometry x="280" y="221" width="87.5" height="20" as="geometry" />
        </mxCell>
        <mxCell id="ECE6Y4JwWaJ8Y2mSEOKN-13" value="processing" style="rounded=0;whiteSpace=wrap;html=1;" parent="1" vertex="1">
          <mxGeometry x="420" y="221" width="75" height="20" as="geometry" />
        </mxCell>
        <mxCell id="ECE6Y4JwWaJ8Y2mSEOKN-14" value="post-processing" style="rounded=0;whiteSpace=wrap;html=1;" parent="1" vertex="1">
          <mxGeometry x="730" y="221" width="90" height="20" as="geometry" />
        </mxCell>
        <mxCell id="ECE6Y4JwWaJ8Y2mSEOKN-15" value="POS tagging" style="shape=process;whiteSpace=wrap;html=1;backgroundOutline=1;" parent="1" vertex="1">
          <mxGeometry x="301" y="263" width="90" height="30" as="geometry" />
        </mxCell>
        <mxCell id="ECE6Y4JwWaJ8Y2mSEOKN-25" style="edgeStyle=orthogonalEdgeStyle;rounded=0;orthogonalLoop=1;jettySize=auto;html=1;strokeWidth=2;" parent="1" source="ECE6Y4JwWaJ8Y2mSEOKN-18" target="ECE6Y4JwWaJ8Y2mSEOKN-15" edge="1">
          <mxGeometry relative="1" as="geometry" />
        </mxCell>
        <mxCell id="ECE6Y4JwWaJ8Y2mSEOKN-18" value="textual descriptions.txt" style="shape=image;verticalLabelPosition=bottom;labelBackgroundColor=default;verticalAlign=top;aspect=fixed;imageAspect=0;image=data:image/png,iVBORw0KGgoAAAANSUhEUgAAAgAAAAIACAYAAAD0eNT6AAAABHNCSVQICAgIfAhkiAAAAAlwSFlzAAAOxAAADsQBlSsOGwAAABl0RVh0U29mdHdhcmUAd3d3Lmlua3NjYXBlLm9yZ5vuPBoAAB1DSURBVHic7d17sO13Wd/xz0NOIBDuGItURLlKIQ25iSIgCgWqoChK0XbEaOVmFS9YQG07VoGgY8UqAopycYKjI44oqERrVWxUkhNuwUCLIAQEBQTDLSQnefrH2sEEkLPP2b+1vnvt7+s1s4bwz/N9zpmz9nrv9VuX6u4wXlXdPMm3Jjlz53b3JIeGLgUcj08k+askh5Ocn+Rl3X3N2JXg05UAGK+qHpTkl5PcfvQuwOJeneQx3f320YvAdd1g9AKzq6pnZvVbggd/OJjul+QNVfWo0YvAdXkGYKCqeniS3x69B7ARV2f1TMB5oxeBRAAMU1W3SXJJktuO3gXYGBHAvuESwDjfGw/+MJsTkry4qv796EVAAIxz9ugFgCFEAPuCSwCDVNX7knzO6D2AYVwOYCjPAAxQVbeNB3+YnWcCGEoAjHHS6AWAfUEEMIwAABhLBDCEAAAYTwSwcQIAYH8QAWyUAADYP0QAGyMAAPYXEcBGCACA/UcEsHYCAGB/EgGs1aHRC3DcLk9yh9FLwGROTfKnGzzv2giITwxkaQJge3V3f2j0EjCTqvrwgGNFAGvhEgDA/udyAIsTAADbQQSwKAEAsD1EAIsRAADbRQSwCAEAsH1EAHsmAAC2kwhgTwQAwPYSARw3AQCw3UQAx0UAAGw/EcAxEwAAB4MI4JgIAIDNek+SV61ptghg1wQAwGZdmeQREQEMJgAANqy7r4gIYDABADCACGA0AQAwiAhgpEOjF9iLqrpZkgclOXvnduckNXSp3dnqv3dgOd19RVU9IslvJXnIGo64NgLS3eetYT5bamsfiKrqwUl+MckXjN4FYC9EACNs3SWAWnleVk+ZefAHDgSXA9i0rQuAJP8pyeNGLwGwNBHAJm1VAFTVnZI8c/QeAOsiAtiUrQqAJM9IcvLoJQDWSQSwCdsWAPcdvQDAJogA1m1rAqCqbpfkdqP3ANgUEcA6bU0AJDlj9AIAmyYCWJdtCoCbjl4AYAQRwDpsUwAATOs6EXD+mo4QAZMRAABbYicCvi4igAUIAIAtIgJYigAA2DIigCUIAIAtJALYKwEAsKVEAHshAAC2mAjgeB0avcCGXZDku0YvkdUnGr5y9BLAwdDdV1TV1yV5eZIHr+GIayMg3X3eGuYzwGwB8OHuft3oJarqQ6N3AA4WEcCxcgkA4IBwOYBjIQAADhARwG4JAIADRgSwGwIA4AASARyNAAA4oEQAn40AADjARAD/HAEAcMBdJwL+YE1HiIAtJAAAJrATAV8bEcAOAQAwCRHAdQkAgImIAK4lAAAmIwJIBADAlEQAAgBgUiJgbgIAYGIiYF4CAGByImBOAgAAETAhAQBAEhEwGwEAwCeJgHkIAACuRwTMQQAA8GlEwMEnAAD4jHyL4MEmAAD4Z3X3xyMCDiQBAMBndZ0I+MM1HSECBjg0egEOtqo6Icmdk9x49C4L6SRv7+7LRy8Cm9TdH6+qr03y20ketIYjro2AdPd5a5jPpxAALK6qTknytCT3TnKvJDcZu9HiuqremuRwkhd29/mjF4JNEAEHi0sALKqqviHJm5J8X5L75OA9+CdJJblLkkcneVVVPb+qbjp4J9iIncsBXxuXA7aeAGAxVfWMJC9LcsroXTbssUleV1W3Gr0IbIIIOBgEAIuoqvsneeroPQa6U5KfG70EbIoI2H4CgD2rqpOTvDCrp8Zn9i1V9fWjl4BNEQHbTQCwhK9LcsfRS+wT3zd6AdgkEbC9BABLOGv0AvvIGVXlfsVURMB28oOKJZw9eoF95OQkdx+9BGyaCNg+AoAleMC7Pn8fTEkEbBcBwBJ8oNT1+ftgWiJgewgAABYlAraDAABgcSJg/xMAAKyFCNjfBAAAa3OdCPhfazpCBBwnAQDAWu1EwMMjAvYVAQDA2omA/cfbldgv3p3kyOglkvyLJCeNXgIOou7+eFU9PMnvJHngGo64NgLS3eetYf6BIgDYL+7b3X8zeomq+v0kDxm9BxxUImD/cAkAgI1yOWB/EAAAbJwIGE8AADCECBhLAAAwjAgYRwAAMJQIGEMAADCcCNg8AQDAviACNksAALBviIDNEQAA7CsiYDMEAAD7jghYPwEAwL4kAtZLAACwb10nAv5oTUdMGwECAIB9bScCHhYRsCgBAMC+JwKWJwAA2AoiYFkCAICtIQKWIwAA2CoiYBkCAICtIwL2TgAAsJVEwN4IAAC2lgg4fgIAgK3mw4KOjwAAYOt198ciAo6JAADgQBABx0YAAHBgiIDdOzR6AYDJ3Kqqzh29xATelOT+Wc/j3LURkO4+bw3zN0IAAGzWzZM8ZfQS7NnWR4BLAABwfLb6coAAAIDjd0KSF1bV6aMXOVYCAAD25sSsngm44ehFjoUAAIC9OzXJD4xe4lgIAABYxqNHL3AsBAAALOMeVXXj0UvslgAAgGWckGRrXgzocwDYL95eVaN3gKP529ELsO99QZILRi+xG54BANil7v77JO8avQcsQQAAHJuLRy8ASxAAAMfmt0YvAEsQAADHoLtfmOT80XvAXgkAgGP3HUk+NHoJ2AsBAHCMuvtdSR6Q5A2DV4HjJgAAjkN3vz7J2UmeleRjg9eBY+ZzAFjClaMX2Gf8fUyiu69M8tSq+uEkX5zkjJ3/PWHoYhyvRyX5otFLbIoAYAlvSPLA0UvsI54Wnkx3X53kTTs3tlRV3SsTBYBLACzhwtEL7CMf7O63jl4C4GgEAEv4y9EL7COvGb0AwG4IAJbwiiQXjV5iH7gmyX8fvQTAbggA9qy7jyQ5J1789uzu3oovAQEQACyiuy9J8n1Jrh69yyAXJPmR0UsA7JYAYDHd/fNJ7pPkzaN32aArk/xQkvt398dHLwOwW94GyKK6+zVVdXqSxya5d5Izk9w1SQ1dbFkfyOob4Q4nOW/n2Q+ArSIAWFx3X5Hkf177/6vqxkluNG6jRXV3/+PoJQD2SgCwdjtPjXt6HGAf8RoAAJiQAACACQkAAJiQAACACQkAAJiQAACACQkAAJiQAACACQkAAJiQAACACQkAAJiQAACACQkAAJiQAACACQkAAJjQodELcDBV1ZckuU+Ss5OcnuQmexx5JMmlSS5MclGSP+zuK/c4c1eq6m5JviLJWTu3W2/iXDggrkpySVb33QuT/FF3Xz12JRIBwMKq6pQkz0nyTWsYf6ckD9v570uq6lu7+7VrOCdJUlU3SvKjSZ6c5IR1nQMTuHOSR+z8919U1Tnd/eaRC+ESAAuqqgcneVPW8+D/qe6Z5DVV9ZR1DK+quyQ5nOQp8eAPS/rSJK+tqieMXmR2AoBFVNVtk/xqklM2eOyhJOdW1UOXHFpVh5K8NMk9lpwLfNJJSX6uqu4zepGZCQCW8tyMuzb+gqq65YLznpbVtX5gfW6Q5MVVtdfXB3GcBAB7VlVfmX+6vjfCv0zy1CUGVdXnJvkvS8wCjurOSb5n9BKzEgAs4b6jF8jqHQdLOCvJiQvNAo7OZYBBBABLOHv0AklOr6ol/j2fucAMYPfc5wYRACzhtNELJLlpki9cYM6pC8wAdu92VeWzNQYQACzhnaMXSHJ1kvcsMOeyBWYAu/eRJB8avcSMBABLuHD0Akku7e6PLzDn4gVmALv3uu6+ZvQSMxIALOGi0QtkuQduAQCb5T43iABgCS9P8raB5x9J8rNLDOruS5P8/hKzgKO6IqvPEGEAAcCedfdHk5yTpAet8PTuXvJZiO9I8sEF5wGf2dN8J8A4AoBFdPefJjl3wNGvTvLjSw7s7r9N8tisnlkA1uN3k/zM6CVmJgBYTHf/UJJHJnnfBo47ktU39X1Vdy/+QN3dv5HVl5b81dKzYXJXZPUNmw/v7lHPGhJfB8zCuvs3q+rVWX2e/r2T3CvJUp/1fXWSS7N60dDPLvy0/6fp7sNVdWaSH0jygCRnZNz3HcA2uyqrbwo9nOSndl5rw2ACgMV19/uSfH+SVNUJWX3e9433OPbqJG9d6K1+u9bdVyR5+s4tVXWHJLfa5A6w5a7K6r77idGLcH0CgLXq7quTvGX0Hkvp7nckecfoPQD2ymsAAGBCAgAAJiQAAGBCAgAAJiQAAGBCAgAAJiQAAGBCAgAAJiQAAGBCAgAAJiQAAGBCAgAAJiQAAGBCAgAAJiQAAGBCAgAAJiQAAGBCAgAAJiQAAGBCAgAAJiQAAGBCAgAAJiQAAGBCAgAAJiQAAGBCAgAAJiQAAGBCAgAAJiQAAGBCAgAAJiQAAGBCAgAAJnRo9AIcTFV1syT3SnJmktOS3HiPI69O8uYkFye5uLvfs8d5u1ZVN0pyz6z+LKcnudWmzoYD4KoklyY5nORwd79/8D7sEAAsqqpOSPKDSX40yQ3XeM6vJXlid//Dus7YOeebkjw3yW3WeQ7Moqqen+TJ3f2R0bvMziUAFlNVd07yZ0memTU++O/4d0kuqaqHrGN4Vd2iql6a5NfjwR+W9Lgkb6iq+41eZHYCgEVU1UlJXpHkSzd47OcleXlV3WMNs1+Q5JvXMBdIvijJK6vqCwfvMTUBwFKenuRuA869UZKXVNWJSw2sqm9J8o1LzQM+o5sleVFVeRwaxF88e1ZVpyX53oErnJHkSUsM2nnx4s8tMQs4qq9I8u2jl5iVAGAJD8z4f0sPWmjOmfEqf9ikpe67HKPRP7Q5GM4evUBWzwLspznA7rjPDSIAWMJZoxdIckpVff4Cc/wwgs26886lNzZMALCED49eYMdHF5jhvcmwWVcl+cToJWYkAFjChaMXSPK27v7gAnMOLzAD2L1LuvvK0UvMSACwhP0QAEs9cAsA2Cz3uUEEAEt4RZIPDd7hvIXmvCHJGxeaBXx2neSlo5eYlQBgz7r7vRn7OQDndffLlxjU3UeSPCar65LAev18d//x6CVmJQBYRHe/OMkrBxz97iTfveTA7n5tkh9bcibwaf5fkv88eomZCQCW9Mgkz8rqq3s34ZVJzl7oxX/X090/luQ7k1y+9Gwgv5bkPt39sdGLzEwAsJju/kR3PzXJfZL87yTruHNfndU1+m/v7od193vWcEaSpLtfkOTUJC9LstavHYYJXJXk4iSP7O5Hd/f7Ry80u0OjF+Dg6e7XJPmqqjohyb9KcnqSm+xx7JEklyZ57SZ/a+jud2bni4Gq6o5ZfejRrTd1PhwAVyW5JMnru/uK0cvwTwQAa9Pd1/62fiBeVd/db0vyttF7ACzBJQAAmJAAAIAJCQAAmJAAAIAJCQAAmJAAAIAJCQAAmJAAAIAJCQAAmJAAAIAJCQAAmJAAAIAJCQAAmJAAAIAJCQAAmJAAAIAJCQAAmJAAAIAJCQAAmJAAAIAJCQAAmJAAAIAJCQAAmJAAAIAJCQAAmJAAAIAJCQAAmJAAAIAJCQAAmJAAAIAJCQAAmJAAAIAJHRq9AAdXVZ2c5Iwkpye5yR7HHUlyaZKLuvvv9rrbsaqqE5OcmuSsJLfe9Pmwxa5KcklW990PjF6GfyIAWFxVPTDJTyY5LWt4lqmqLkvy00l+pruvWXr+p5x19yQ/m+S+SW60zrPgoKuqtyV5enf/8uhdcAmABVXVzarqeUn+IKvf+tf17+v2Sf5Hkj+uqjut44CqukFVPTnJxUkeGA/+sIQ7Jvmlqvq9qvr80cvMTgCwiKqqJC9P8rgktaFj75fkz6vqc9cw+5lZPYtx0hpmw+wemuSCqrrF6EVmJgBYyhOSfOWAc09J8rwlB1bVlyV58pIzgU9z+6wu5TGIAGDPqur2SX5i4ApfX1WPXmJQVd0wyYvjvgGbcE5V/dvRS8zKDzmW8NVJTh68w6MWmnOvJHdZaBZwdN80eoFZCQCWcPboBbJ6u+F+mgPsjvvcIAKAJXzJ6AWS3KGqbrPAnDMXmAHs3j2qyottBxAALOGGoxfYscQe++XPArO4QZITRi8xIwHAEi4cvUCS93b3exaYc/ECM4Dd+7/d/dHRS8xIALCE/RAAh/fZHGB33OcGEQAs4VVZfd73SK9caM7FSd670Czg6Ja673KMBAB71t1vSfL0gSu8OsnzlxjU3R9L8p1LzAKO6pXd/aujl5iVAGApz0jy+gHnfjTJty35pUDd/YokL1pqHvAZ/UPE9lACgEV091VJvibJ+Rs89q+TPLi737aG2d+V5LlrmAskb0ryoIVeuMtxEgAsprvf3d0Pyep7AT68xqOuyeop/9O6+4J1HNDdH+vuJyZ5SJLL1nEGTOhIkmclObO7Xzt6mdkdGr0AB093P6+qXpDk7ll9sM5pSW68x7FXJ3lzVi/Se92m3jbU3edX1R2y+hrTM7P6muNbbeJsOCCuSnJpVq/2f313XzF4H3YIANaiu48keePObat1d2d1ueGvk/z64HUAFuESAABMSAAAwIQEAABMSAAAwIQEAABMSAAAwIQEAABMSAAAwIQEAABMSAAAwIQEAABMSAAAwIQEAABMSAAAwIQEAABMSAAAwIQEAABMSAAAwIQEAABMSAAAwIQEAABMSAAAwIQEAABMSAAAwIQEAABMSAAAwIQEAABMSAAAwIQEAABMSAAAwIQEAABMSAAAwIQOjV6Ag62qbpHktCQ32eOoI0ku7e53732r41NVJyX510luPWoH2EJXJbmku/9u9CJcnwBgcVV1hyT/Lcl9ktw1SS04+z1JLkry7O7+o6Xmfpbzbp7kvyb5qiT3THLius+Eg6iqLktyYZJndfdrRu+DSwAsqFYen+SNSc5Jcrcs+OC/4/OSPDzJH1bVc6rq5IXnf1JV/ZsklyT5gSSnx4M/7MXtk3xDkguq6tyqutHohWYnAFjS85M8N8nNNnBWJXlikj/feWp+2eFV/zHJ+Vn90AKWc0KSpyT546ryLPRAAoBFVNXXJPnOAUefmuQZSw6sqjsmefaSM4FP86VJfmj0EjMTAOxZVd0yyS8MXOFJVXW/JQZVVSV5YZK1XVoAPulHqur00UvMSgCwhIcnud3A82+Q5HELzbpHkvsvNAv47E5M8h2jl5iVAGAJZ49eIMkZ+2wOsDvuc4MIAJZw1ugFktxtoXcE+GEEm3VaVZ0weokZCQCWMPLp/2vdIMkpC8y57QIzgN27SZKbj15iRgKAJbx29AJJ/jHJOxaY84YFZgC7d1l3f3D0EjMSACzhwtELJHltd/cCcw4vMAPYPfe5QQQAS/iT0QskefVCcy5KcsVCs4CjW+q+yzESAOxZd/+fJC8duMLbk/zEEoO6+wNJfniJWcBRXZLkOaOXmJUAYCnfneS9A87tJN/W3R9ZcOaz47cSWLerkjymuz8xepFZCQAW0d3/kOQbk7xzg8d+PMkTu/tPlxza3dck+Q9J/nLJucAnXZ7knO6+ePQiMxMALGbnUsCpSX5xA8f9eZJ7dffz1jG8u9+Z5MuTPC3Jles4AyZ1fpJTu/u80YvMzjcxsajuvjzJY6vqp5J8WVafEnh6Vu/13YsjSS7N6h0HFyX5i53f1Nemu69Ocm5V/UpWMXDWzu3W6zwXDpirsrrWf2GSC7t7P7xriAgA1qS735LkLUleNHiVPevudyf59Z0bwIHgEgAATEgAAMCEBAAATEgAAMCEBAAATEgAAMCEBAAATEgAAMCEBAAATEgAAMCEBAAATEgAAMCEBAAATEgAAMCEBAAATEgAAMCEBAAATEgAAMCEBAAATEgAAMCEBAAATEgAAMCEBAAATEgAAMCEBAAATEgAAMCEBAAATEgAAMCEBAAATEgAAMCEBAAATEgAAMCEDo1egIOvqm6c5EZ7HHN1d394iX32oqpOTHLy6D1gixzp7o+MXoJPJwBYXFWdlOSxSe6d5Mwkd01SC8z92yQX79x+qbvfudeZuzizknxLkgdk9We5R5IbrvtcOEiq6rIkh3duv9Ddfz94JSIAWFhVfUmSFyf54jWMv93O7WFJvreqntTdL1rDOUmSqrp9khcmeeC6zoBJ3H7n9ogk31NVT+julw3eaXpeA8BiquqJSS7Ieh78P9XNk7ywql66juFV9RVJ3hgP/rC0U5L8RlU9d/QisxMALKKq7pnkp5OcsOGjv7mqHr/kwKq6eZKXJLnFknOB63l8VT169BIzEwDsWVUdyuqp8lHXxn+yqu644LxnJ/mCBecBn9lzquq2o5eYlQBgCQ9LctbA82+a5AeXGFRVX5jknCVmAUd16yRPGr3ErAQAS7j36AWSnL3QnJEhAzNa6r7LMRIALGE/3IFP3XmP/l6dscAMYPfc5wYRACzhrqMXyOr1B0tct7/LAjOA3btVVd1m9BIzEgAs4dLRCyS5Isk7Fpjz5gVmALv3/u7+wOglZiQAWMKFoxdI8vruPrLAnMMLzAB2z31uEAHAEv5i9AJZLkIuStILzQKObj/8AjElAcASfjfJnw08/0NJzl1iUHe/K8lzlpgFHNV7s/rcDQYQAOxZd1+T1XvnPzZohe/p7ncvOO8pSd664DzgM3us6//jCAAW0d1vTfL4JJ/Y8NHP6+5fWXJgd38sq28A9I1lsB6d5Nzu/p3Ri8xMALCYnQfiM7K6jr5u70vy9d39hHUM7+4Lk9wzyW+uYz5M7LIkD+7up41eZHa+DphFdfdfVdWXZfUb9L2TnJnktCQn7XH0NVm9Re/indt56/5O8e5+X5JHVtXXJHlAVn+W05Pccp3nwgFzJKu3Ch/eub2kuy8fuxKJAGANdt6O95Kd29br7lcmeeXoPQCW5BIAAExIAADAhAQAAExIAADAhAQAAExIAADAhAQAAExIAADAhAQAAExIAADAhAQAAExIAADAhAQAAExIAADAhAQAAExIAADAhAQAAExIAADAhAQAAExIAADAhAQAAExIAADAhAQAAExIAADAhAQAAExIAADAhAQAAExIAADAhAQAAExIAADAhAQAAExIAADAhAQAAExIAADAhAQAAExIAADAhAQAAExIAADAhAQAAExIAADAhAQAAExIAADAhAQAAExIAADAhAQAAExIAADAhAQAAExIAADAhAQAAExIAADAhAQAAExIAADAhAQAAExIAADAhAQAAExIAADAhAQAAExIAADAhA6NXoDjdqiqHjp6CYAD5HNGL7BJAmB7nZzk90YvAcB2cgkAACYkAABgQgIAACYkAABgQgIAACYkAABgQgIAACYkAMb48OgFAFiLy0cvsFsCYIDu/kCSy0bvAcDiDo9eYLcEwDhb848EgF25rLv/bvQSuyUAxnn16AUAWNSfjF7gWAiAcZ6T5JLRSwCwiH9M8rTRSxwLATBId38iyWOSXDV6FwD27Pu7+12jlzgWAmCg7r44yTnZoleNAnA91yR5Vnf/8uhFjpUAGKy7z0tyapLzR+8CwDF5c5Iv7+6njl7keBwavQBJd78zyUOq6uwk197umeTEoYsBHN2p2fsvk5cmuXKBXdatk7w1yYU7twt2LuduJQGwj3T3tf+oALZCVX0oyS32OOaru/tvFliHY+ASAABMSAAAwIQEAABMSAAAwIQEAABMSAAAwIQEAABMSAAAwIQEAABMSAAAwIQEAABMSAAAwIQEAABMSAAAwIQEAABMSAAAwIQEAABMSAAAwIQEAABMSAAAwIQEAABMSAAAwIQEAABMSAAAwIQEAABMSAAAwIQEAABMSAAAwIQEAABMSAAAwIQEAABMSAAAwIQOjV5gww5V1S1HLwFwgNToBTg+swXAA5N8cPQSADCaSwAAMCEBAAATEgAAMCEBAAATEgAAMCEBAAATEgAAMKFtCoArRi8AwFr4+T7ANgXA60cvAMDi3t/d7x29xIy2JgC6++1J3j96DwAWdXj0ArPamgDY8ZejFwBgUReOXmBW1d2jd9i1qjojqwiY7TsMAA6i9ya5Z3d/YPQiM9qqZwC6++Ikzxy9BwCLeKwH/3G2KgB2/HiSV41eAoDj1knO7e7fGb3IzLYuALr7yu5+aJInJvno6H0AOCaXJXlwdz9t9CKz26rXAHyqqvqiJI9KcubO7Y5jNwLgUxxJcmlWr/Y/nOQl3X352JVIkv8PZRApNwJUET0AAAAASUVORK5CYII=;" parent="1" vertex="1">
          <mxGeometry x="180" y="252" width="52" height="52" as="geometry" />
        </mxCell>
        <mxCell id="8_euKS4hgkdlGo7dpll--9" style="edgeStyle=orthogonalEdgeStyle;rounded=0;orthogonalLoop=1;jettySize=auto;html=1;entryX=-0.037;entryY=0.365;entryDx=0;entryDy=0;strokeWidth=2;targetPerimeterSpacing=0;spacing=2;entryPerimeter=0;" parent="1" source="ECE6Y4JwWaJ8Y2mSEOKN-19" target="ECE6Y4JwWaJ8Y2mSEOKN-40" edge="1">
          <mxGeometry relative="1" as="geometry">
            <Array as="points">
              <mxPoint x="346" y="350" />
            </Array>
            <mxPoint x="519.06" y="284.9999999999999" as="targetPoint" />
          </mxGeometry>
        </mxCell>
        <mxCell id="8_euKS4hgkdlGo7dpll--10" value="doc class" style="edgeLabel;html=1;align=center;verticalAlign=middle;resizable=0;points=[];" parent="8_euKS4hgkdlGo7dpll--9" vertex="1" connectable="0">
          <mxGeometry x="0.5661" relative="1" as="geometry">
            <mxPoint x="-28" as="offset" />
          </mxGeometry>
        </mxCell>
        <mxCell id="ECE6Y4JwWaJ8Y2mSEOKN-19" value="tokenization" style="shape=process;whiteSpace=wrap;html=1;backgroundOutline=1;" parent="1" vertex="1">
          <mxGeometry x="301" y="293" width="90" height="30" as="geometry" />
        </mxCell>
        <mxCell id="ECE6Y4JwWaJ8Y2mSEOKN-51" style="edgeStyle=orthogonalEdgeStyle;rounded=0;orthogonalLoop=1;jettySize=auto;html=1;strokeWidth=2;startArrow=none;startFill=0;endArrow=classic;endFill=1;" parent="1" source="ECE6Y4JwWaJ8Y2mSEOKN-20" target="ECE6Y4JwWaJ8Y2mSEOKN-37" edge="1">
          <mxGeometry relative="1" as="geometry" />
        </mxCell>
        <mxCell id="ECE6Y4JwWaJ8Y2mSEOKN-20" value="BPMN modeling" style="shape=process;whiteSpace=wrap;html=1;backgroundOutline=1;" parent="1" vertex="1">
          <mxGeometry x="750" y="340.5" width="120" height="40" as="geometry" />
        </mxCell>
        <mxCell id="624g_YLlc5Atb9BK02qp-2" style="edgeStyle=orthogonalEdgeStyle;rounded=0;orthogonalLoop=1;jettySize=auto;html=1;entryX=0;entryY=0.5;entryDx=0;entryDy=0;strokeWidth=2;" edge="1" parent="1" source="ECE6Y4JwWaJ8Y2mSEOKN-39" target="8_euKS4hgkdlGo7dpll--5">
          <mxGeometry relative="1" as="geometry" />
        </mxCell>
        <mxCell id="ECE6Y4JwWaJ8Y2mSEOKN-39" value="Context-level processing" style="rounded=0;whiteSpace=wrap;html=1;" parent="1" vertex="1">
          <mxGeometry x="542.5" y="321" width="79.06" height="79" as="geometry" />
        </mxCell>
        <mxCell id="8_euKS4hgkdlGo7dpll--25" style="edgeStyle=orthogonalEdgeStyle;rounded=0;orthogonalLoop=1;jettySize=auto;html=1;strokeWidth=2;endArrow=oval;endFill=1;targetPerimeterSpacing=0;dashed=1;dashPattern=1 1;" parent="1" source="ECE6Y4JwWaJ8Y2mSEOKN-35" target="ECE6Y4JwWaJ8Y2mSEOKN-39" edge="1">
          <mxGeometry relative="1" as="geometry" />
        </mxCell>
        <mxCell id="ECE6Y4JwWaJ8Y2mSEOKN-35" value="spacy&lt;br style=&quot;border-color: var(--border-color);&quot;&gt;+&lt;br style=&quot;border-color: var(--border-color);&quot;&gt;WordNet" style="shape=cylinder3;whiteSpace=wrap;html=1;boundedLbl=1;backgroundOutline=1;size=15;" parent="1" vertex="1">
          <mxGeometry x="549.53" y="420" width="65" height="90" as="geometry" />
        </mxCell>
        <mxCell id="ECE6Y4JwWaJ8Y2mSEOKN-37" value="BPMN model" style="shape=image;verticalLabelPosition=bottom;labelBackgroundColor=default;verticalAlign=top;aspect=fixed;imageAspect=0;image=data:image/png,iVBORw0KGgoAAAANSUhEUgAAAgAAAAIACAYAAAD0eNT6AAAABHNCSVQICAgIfAhkiAAAAAlwSFlzAAAN1wAADdcBQiibeAAAABl0RVh0U29mdHdhcmUAd3d3Lmlua3NjYXBlLm9yZ5vuPBoAACAASURBVHic7d17vKdzvf7x1zUzDgkhCakcyjGiTRhUbKldMSaVIp1P0t7ZO4UOKOWUXbsT2XLIUFE5poiQ0zi1lZz9kJwihxAZZub9++O+R8tYa836rvX93u/7cD0fj/WYvc3M+lymsd7Xuu/P/bkVEbSRpIWA1YA1hnwsCywJLDHfx/MB5SQ1M7OKBfA48Nh8H48CDwA3Dfm4NSKeTso5UGpDAZA0GXgNsBUwFVgTWBWYkpnLzMwabzZwG3AjcClwHvB/ETEnNVUfNLIASBLwamBLiqH/Oorv7M3MzAbtUeBCijJwPvCHaOAwbVQBkPRKYJfyY+XcNGZmZgD8CZgBzIiIW5KzjFntC4CkpYEdgfcBmybHMTMzG81M4DjgxIh4ODvMaGpbACStDuwF7AQskhzHzMysF7OAHwEHRcTN2WGGU7sCIGk94PPAO4FJyXHMzMwmYi7wU+CAiLgmO8xQtSkAkl4LfAHYFj+SZ2Zm7RLAGcDXIuKK7DBQgwIgaTngUIqNfWZmZm03A9gjIu7PDJF2iV3SJEmfpDhowcPfzMy6YhfgJkmflJQ3hzOuAEjaEDgc2LDyxc3MzOrjKmDXiLiq6oUrbR6Spkg6ELgcD38zM7MNgcslHSip0tNrK7sCIOklwE+AzStZ0MzMrFkuBt4dEXdXsVglVwAkvRn4PR7+ZmZmI9kc+H05MwduoAVA0mRJBwC/pHgTn5mZmY1sWeCXkg4oX3Q3MAO7BSBpMeAk4K0DWcDMzKzdzgTeFRFPDOKTD6QASFoG+AU+u9/MzGwiZgJvi4iH+v2J+14AJL0UOAtYu6+f2MzMrJuuB94cEXf285P2dQ+ApLWBS/HwNzMz65e1gUvLGds3fbsCUAa7CFimL5/QzMzMhnoI2CIiru/HJ+tLASgv+18KrDThT2ZmZmYjuQuY2o/bARO+BVBu+DsLD38zM7NBWwk4q5y9EzKhAlA+6vcLfM/fzMysKmsDvyhn8LiNuwCUBxSchB/1MzMzq9qmwEkTOSxoIlcA9seH/JiZmWV5K8UsHpdxbQIszyn+JaDxLmxmZmYTFsBbIuKsXn9jzwWgfKvf7/HZ/mZmZnXwALB+r28R7OkWQPmu4p/g4W9mZlYXywI/KWf0mPW6B2B//EpfMzOzutmcHvcDjPkWgKR/Aa5gwK8QNjMzs3GZC7w2In43ll88pgIgaRJwGbDRxLKluo3iBKV7hnzcW/54P8UfnJmZtd8kYDlgRWCF8sd5HysBq+ZFm7ArgU0iYoEzbawF4OPA9/sQrEpzgEuAU4FTI+L25DxmZtYAklYBti8/NgPG/ax9kk9ExBEL+kULLACSXgTcBCzdp2CD9CTwa4qhf0ZEPJCcx8zMGkzSssC2FGVgG2DR3ERj8jCwRkT8dbRfNJYCcDTwwT4GG4TZwFHAlyPi3uwwZmbWPpJWAPYFPgz0tOM+wTER8aHRfsGoBaDc+Hcl9T7w5xRg74i4KTuImZm1n6Q1gAOB6dlZRhHARqNtCFzQjv4vUN/hfzHFKxHf7uFvZmZViYibIuLtwFSKWVRHopjhI/+Cka4ASHoVcA31KwCzgF0j4pjsIGZmZpI+CBwOLJKdZT4BrBcR1w73k6NdAfg89Rv+9wFbevibmVldlDNpS4oZVSeimOXD/+RwVwAkvRK4gXo9+nA1MC0i7swOYmZmNj9JLwVOAzbIzjLEHGCtiLhl/p8Y6QrAXtRr+P8M2NzD38zM6qqcUZtTzKy6mEwx05/jOVcAJC1NcUJeXe5lHAp8Lsbz3mIzM7OKSRJwCLBHdpbSLGCFiHh46D8c7grAjtRn+P8MD38zM2uQcmZ9jvpcCViEYrY/y3BXAC4FNq0o1Giuprjs/0R2EDMzs15JWoziMcE67AmYGRFTh/6DZxWAcvPfzVWnGsZ9FAcY+J6/mZk1Vrkx8ErgxdlZgNWHbgac/xbALhWHGc4sYLqHv5mZNV05y6ZTzLZsz5rxzxSActNCHQrArhExMzuEmZlZP5QzbdfsHMAu5awHhtwCkLQ+xX33TBdHxBbJGczMzPpO0kUUjwlm2iAifg/PvgWwZVKYoT6XHcDMzGxA6jDjnpn1QwvAVglBhjrFl/7NzKytyhl3SnKMZ2a9IgJJk4GHgCWTAs0GXuW3+pmZWZuVrxK+FpiSFOFRYJmImDPvCsBryBv+AEd7+JuZWduVs+7oxAhLUsz8Z24BZF7+fxLYL3F9MzOzKu1HMfuybAX/LABTR/mFg/briLg3cX0zM7PKlDPv14kRpsI/C8CaiUFOTVzbzMwsQ+bsWxNAwELAE+RsSJgDLB8RDySsbWZmlkLSssBfKF7XW7XZwGKTgNXI2414iYe/mZl1TTn7Lklafgqw6iRgjaQA4Mv/ZmbWXam3AVwAzMzMcmTOwDUyC8BtEXF70tpmZmapyhl4W9Lya0wClk1a/K6kdc3MzOoiaxYuO4m8EwDvSVrXzMysLrJm4ZKTgCWSFncBMDOzrsuahUu4AJiZmeVJKwBTyCsAPv63pSRNAl5OscF0DWB1ir0mS4zwMQV4DPh7+ePQj0eAW4GbgZuAWyLiiQr/dczMBilrFqYWAF8BaAFJiwKbAa8H1qEY+K8AFunxUy1dfixISLqTogzcBMwEzouIv/S4nplZHaRdARAwl+JI4KqtExHXJ6xrEyBpCrARxduk/pXipRK9DvtBuB74Tfnx24j4W3IeM7MFkrQ2cF3C0iEgEhYGWCsibkxa23ogaRFgW2BniqGfddVorOYCvwNOAk7w2ybNrK4krQnckLI2LgA2AkmbAbsAOwJLJccZrzkUVwWOA07x/gEzq5PMApD1EiCrKUkrAR+mGPyrJcfph8nANuXH3yX9DDg6Ii7KjWVmlmtSdgCrB0mrSTqSYsf9frRj+M9vceADwIWSLpH0luQ8ZmZpXAA6TtI6kk6g2FH/EWDh5EhVmQqcKen/JL2jfHTRzKwz/EWvoyRtIOkU4I/AThSXyrtoA+CnwHWSdnERMLOu8Be7jpG0lKTDgKuA7cl5BLSO1qTYKHiZpH/JDmNmNmguAB0i6b3AjcCu+H/7kWwEXCHpu5Ka+uSDmdkCeQh0gKS1JJ0PzABenJ2nASYBuwE3lqXJzKx1XABaTNJkSfsBvwfekJumkV4MzJB0vqSXZYcxM+snF4CWkvQS4DxgX7qzs39Q3gBcLWnb7CBmZv3iAtBCkv6N4rv+12VnaZFlgNMlHSppoewwZmYT5QLQIpKmSDoYOJPi9bvWf58BLpL08uwgZmYT4QLQEpJWBC4EPocf7Ru0jSluCfgkQTNrLBeAFpC0OnAJsGl2lg5ZmuKWwIeyg5iZjYcLQMNJ2gi4GFg5OUoXTQaOkrRXdhAzs165ADSYpDdS7PR/UXaWjjtQ0jcl+daLmTWGC0BDSXoPxWa/xbOzGAC7A8f7CQEzawoXgAaS9GHgBMDDpl52Ak6RNCU7iJnZgrgANIykacAReKd/Xb0VOMa3A8ys7lwAGkTSFsBP6O6re5vivcCh2SHMzEbjAtAQktYFTgcWzc5iY/Jfkj6bHcLMbCQuAA0gaWXgbMCvp22WgyW9PzuEmdlwXABqTtILKIb/CtlZrGcCflA+rmlmVisuAPV3FLB6dggbtynACeVRzWZmteECUGOSdgN2yM5hE/Yi4EeSvHnTzGrDBaCmJG0A/Hd2Duub1wP7ZIcwM5vHB5bUkKQlgBOBRbKz9MkjwD3DfNxd/vgkxR6HFef7eEn543K0o6x+UdJvI+K87CBmZi4A9XQE8MrsEBPwOPBr4FTgzIh4cAy/5+qRfqI8Xvd1wLTy42X9CJlgEsV+gPUj4r7sMGbWbQIiae21IuLGpLVrS9KOFIf9NM39FOcUnAacGxFPDmqh8vbINGB74NWDWmeATo2I6dkhzCyfpDWBG1LWxgWgNiQtCdxIcx75exo4kuK9BJdFxNyqA0h6OfB24L+AlapefwK2jYhfZIcws1yZBaAN91XbZH+aMfyDYo/CWhGxW0RcmjH8ASLijoj4JsWjkntT7Ddogu9Iel52CDPrLheAmigva++WnWMMLgA2joh3R8St2WHmiYh/RMRBwGrAt4CnkiMtyMrAl7JDmFl3uQDUgKRJwOHU+yU/1wFvi4gtI+LK7DAjiYgHI2J3YC2KvRRZt7jG4jPl5T8zs8q5ANTDR4GNs0OM4ElgV+DVEXFmdpixiojbIuI9wGsp9lXU0cIUxc/MrHIuAMkkLQZ8NTvHCO4FXh8R34+IOdlhxiMirgI2AX6ZnWUEb5C0bXYIM+seF4B8HwOWzQ4xjCuBDSPiiuwgExURjwDbAodmZxnBF7IDmFn3uAAkkrQwsEd2jmH8CHhdRNyTHaRfImJuRHwWeB8wKzvPfDaW9K/ZIcysW1wAcn2A4rjbupgL7B0ROw/yIJ9METGD4lz+e7OzzMdXAcysUi4ASco3w+2ZnWOIWcD25aN0rRYRlwMbAX/MzjLElpI2zQ5hZt3hApDnPcCq2SGG+EREnJEdoioRcTfwNoojjOvCVwHMrDIuAHk+lx1giG9ExLHZIaoWEX+mOEa4LocGvVXSq7JDmFk3uAAkkPQvwLrZOUpnU68yUqmIuAT4ZHaOIT6QHcDMusEFIMcu2QFKNwE7NvUZ/36JiKMojg+ug53L/SFmZgPlAlAxSVMo7v9n+xuwXfmMvMFngHOyQwDLA2/KDmFm7ecCUL03AcslZ5gDvDsibk7OURvlVZAdgVuyswDvzw5gZu3nAlC9Olz+Pyoizs4OUTcR8TDw8ewcwDRJS2WHMLN2cwGokKQlgWnJMR4H9kvOUFsRcT757w1YhOJqhJnZwLgAVOstwKLJGb4REXU7Ba9u9qQ4FTHTDsnrm1nLuQBUK/u89/uBrydnqL2IuBb4YXKMzcp3RZiZDYQLQLWyC8CXI+Kx5AxNsQ/wj8T1FwM2TlzfzFrOBaAiklYBVkmMcAvwv4nrN0pE3EX+2QBbJq9vZi3mAlCd7O/+946I2ckZmuYg4MHE9bdKXNvMWs4FoDqZBeDWiPh54vqNVB6SdERihE0kPS9xfTNrMReACkgSud/NnZq4dtOdkrj2IsDUxPXNrMVcAKrxcnJP/3MBGKeIuAq4KzHCRolrm1mLuQBUY43Ete8HLk1cvw1OS1w78++OmbWYC0A1Mr+InxER2YfaNF3mFRQXADMbCBeAamR+Effl/4n7LcXbEzO4AJjZQLgAVCPri/jjwLlJa7dGRDwNnJm0/DKSlk1a28xazAWgGqsnrXtWRDyZtHbbZF5Jyfr7Y2Yt5gIwYJIWA1ZKWv6ipHXbKPPP0rcBzKzvXAAG7+WAktb2W//6569A1kmKKyeta2Yt5gIweEsmrn1P4tqtUj5JcV/S8pl/h8yspVwABm+JxLV9BaC/sv48M/8OmVlLuQAMngtAe7gAmFlruAAMXtYX70cj4omktdvKBcDMWsMFYPCyvnj7/n//Zf2ZugCYWd+5AAxe1hdvX/7vP18BMLPWcAEYvMWT1s3asd5mWX+mWX+HzKzFXAAGb1bSuh4a/Zf1Z5r1d8jMWswFYPAeS1p3haR12yzrzzTr75CZtZgLwOBlffFeMWndNsv6M3UBMLO+cwEYvKwv3stJ8v++/eUrAGbWGh4Qg/f3pHUnA8slrd1WWQUg6++QmbWYC8DgZX735n0A/eUrAGbWGi4Ag5f5xdv7APrLewDMrDVcAAYv83l8XwHoE0mL4zMdzKxFXAAGLCLuJe87uDWS1m2jzD/LmxLXNrOWcgGoRtYX8O2S1m2jzD9LFwAz6zsXgGrcnLTu6pLWTlq7baYnrfsU8Kektc2sxVwAqpH5Hdz2iWu3gqRVgXWTlr81IuYkrW1mLeYCUA0XgGbL/DP05X8zGwgXgGpkfhHfUNJKieu3Qdblf3ABMLMBcQGoxk3A00lrC5iWtHbjSVoOmJoY4drEtc2sxVwAKhAR/wAuT4zg2wDjty25/51ckLi2mbWYC0B1fpO49hskrZK4fpN9MHHtWyLirsT1zazFXACqk1kApgBfTVy/kSRtC2yWGOH8xLXNrOVcAKpzOfBE4vrvkfSaxPUbRdJk4KDkGC4AZjYwLgAViYingIsSIwg4OHH9pvkAkH2IkguAmQ2MC0C1zktef2tJ2yRnqD1JzwO+khzj+ojwS4DMbGBcAKr1q+wAwMGSlB2i5nYn/1XKdfi7YmYt5gJQoYj4I/CH5BjrAzsnZ6gtSS8E9srOAczIDmBm7eYCUL3jsgMAX5P0guwQNXUAsGRyhj9ERHZRNLOWcwGo3o+A7Je7vAw4sdzpbiVJHwY+lp0D+GF2ADNrPxeAikXEX4BzsnMAbwK+nh2iLiRtDhyWnQOYDZyQHcLM2s8FIEcdbgMA/KekD2WHyCbp5cDJwMLZWYCzIuL+7BBm1n4uADlOBR7LDlE6vPzut5MkLQ6cDrwoO0vJl//NrBIuAAnKlwP9IDtHaWHg5+V3wZ1SPg45A1gvO0vpz8Bp2SHMrBtcAPIcCszKDlFaDjhNUvbu96p9jXq9KfGQiMh6bbSZdYwLQJKIuAc4NjvHEK8GLpW0anaQQZO0kKQjgL2zswxxH3BUdggz6w4XgFwHU+z6rot1gCskvT47yKCUB/2cQz0e9xvqvyPiyewQZtYdLgCJIuJ24MfZOebzQuAcSR/PDtJvktYBrgTqVnAeAg7PDmFm3eICkO9AILJDzGch4PuSviNpSnaYfpD0NmAmsEp2lmF8OyL+nh3CzLrFBSBZRNxA/a4CzPMp4FeSls4OMhGS9qTYXb9EdpZhPAh8OzuEmXWPC0A97AE8mh1iBFsD10v6RNOuBkjaVNJFwEHU9+/6nhHxcHYIM+ueun5R7JSIuBfYJzvHKJanuEd9naQdssMsiKQ1JJ0MXArU+ZCjmcDR2SHMrJtcAOrju+S/KnhBVgd+JukySa/LDjM/SSuUj/ddC0zPzrMAc4BdI6Ju+z/MrCNcAGoiIuYAu1K/DYHD2Rj4raQzJK2bHUbSCyR9Ffh/FI/3NeFWxXf8yl8zyyTyBs5aEXFj0tq1JelI4CPZOXp0DcX7DU6NiKurWFDSi4HtKL7T3wpYpIp1++QeYM2IqMv7IMwsiaQ1gRtS1sYFoFYkLUMxUF+SnWWc7qAsA8BF5ZWNvpD0Coqje6cDm9DcK1jTI+LU7BDWDeU7L54PLEnxJMws4M8RMTc1mAEuADaf8v76ecDk7CwT9CBwFnArcC/Fd773lh/3DXfufXlS3wrAiuWPK1CUoS0pTipsuu9ExH9kh7B2kbQaxRM7WwMv45/DfglgcZ5blp8EbgZuAm4c+qPPpKiWC4A9h6TPU7yspq0CeICiDPyDYtAvT/F2wrb6HTA1Ip7KDmLNVl4p/FeKgf9G+nvA1c3AccCxEXF3Hz+vDcMFwJ6jvGx3FrBNdhbri0eA10TEbdlBrJkkPR/4JPAu4DUM/hbYHOBsipdUneE3VQ5GZgFo6j3U1isfD3svxWVza74Pe/jbeEh6nqT/BG4DDgE2pJqv3ZOBtwA/B+6SdKiktSpY1yriAlBjEfFXYCeKJm7N9d2I+Hl2CGsWSYtI+hTFHppvAMslxlkO+AzFqaAnS1ohMYv1iQtAzUXEbynOB7BmOgv4r+wQ1hySFirfxnkL8B2K/TF1Mp2iCDTtcWWbjwtAA0TEkcCXsnNYz64A3uF7pzZWkl4FXAd8H3hpcpzRLAUcKem88gkEayAXgIaIiK9SHBdszXAj8JaIeDw7iDWDpOkU74d4ZXaWHmwJ/FHSHpKa/thy57gANMungROzQ9gC3Q28KSIezA5i9afCfhSb7RZPjjMezwO+DlzmqwHN4gLQIOXJXe8Dzs3OYiN6mGL4/zk7iNWfpMWBk4F9KR7LbrINKd4R8orsIDY2LgANUx4isz3w6+ws9hx/Bd4YEddlB7H6k7QqxSX/7bOz9NFLgAskNek2Rme5ADRQeV/5bcCPs7PYM24HNouI32UHsfqTtBlwJfCq7CwDMK8ErJ4dxEbnAtBQ5c7ynYFvZWcxrqEY/rdkB7H6k7Q5xeOhy2RnGaAVKUrAGtlBbGQuAA0Whd2Bz2dn6bALgddFxL3ZQaz+yu/8f0UzN/v1agXgfJeA+nIBaIGIOBD4MODnzat1MsWGv0eyg1j9lcP/LLox/OdZgeJKwKrZQey5XABaIiKOBl4PePf54M0G9qQ45OfJ7DBWfx0d/vMsD5xWPvFgNeIC0CIRMRPYADgjO0uL3Q1sGRGHlC9sMhtVxy77j+RVwHHlW06tJlwAWiYiHgKmAXvgWwL9djawfkRcnB3EmkHSVIrhv0R2lhqYDuyTHcL+yQWghcrNgf+Nbwn0yxzgi8C/RcQD2WGsGcrhfxYe/kPtWx55bDXgAtBi5S2BdYFv41cKj9cVwMYR8TVf8rex8vAfkShuBbTx/IPGcQFouYh4NCI+TXFM52XZeRrkQeBjwCY+3Md6IWlTPPxHszjFpsA2n4PQCC4AHRERvwemAh+lGG42vAB+AKwREUf6u37rRTn8z8bDf0FWBU70GwRzuQB0SLk34AfAGhTvG/cmwWe7FNg0Ij7qN/lZrzz8e7Y1cGh2iC5zAeigiHgwInYFVgO+A/wjOVK23wBbRcRmEXF5dhhrHl/2H7fdJb0/O0RXuQB0WETcGRH/AawMHAw8lpuoUkFxXsImEbF1RJyfHciaSdImFMN/yewsDXWEpI2zQ3SRC4AREfdHxF7Ayyie070nOdIgzQJ+RPE8/3b+jt8mohz+Z+PhPxGLACdLWiE7SNe4ANgzIuJvEbE/8FLgzRSvG27L7YGZwCeA5SNi54i4JjuQNZuHf1+tSFECFskO0iWiuBSaYa2IuDFpbRsjSUsC7wLeD2yeHKdXfwZmAMdFxM3ZYaw9PPwH5piI+FB2iCpJWhO4IWVtXABsjCStDLwR2LL8WD4zzzCepNjJf175cZkf47N+K+9X/xoP/0HZPSK+lR2iKi4A1kiS1gK2oigDrwNeVHGEWcCVFMP+fGBmRMyqOIN1SMOH/2M04ymF2cCbI+I32UGq4AJgrSDpRRRnDKwBrD7k/14NWGgCn/pu4Gbgpvk+7ogIH3FslWjY8H8a+BnFhtdbKf5beULSS4HNKG7nvRd4QV7EUT0IbBQRt2cHGTQXAGu18rSvJSm++xjuYwrFdyd/L38c+vGIv6u3bOXwP5v6Dsyhfgu8NyLuGu0XSXohsC/w75Wk6t0fgakR8ffsIIPkAmBmVlOSXkvxnX8Thv+hwF69XBmT9HHgMOr5VNjJwDvavJcnswDU8X9wM7NaaNjw3zsiPtvrbbGIOAL48IAyTdTbgS9lh2grFwAzs2E0cPgfNN7fHBHHUpwGWkf7Sdo+O0QbuQCYmc1H0kZ0ZPgP8Xngl334PP0mYIakdbKDtI0LgJnZEOXwP4dmDP/P92n4ExFzgZ0onrCpm8WB0yQtnR2kTVwAzMxKDRz+B/bzE0bEI8A04JF+ft4+WQ04sXyqyPrABcDMjMZd9u/78J8nIm6iuBIwdxCff4LeCHw9O0RbuACYWedJ2pBi+C+VnWUMvjCo4T9PRPwS+MIg15iA/5T0vuwQbeACYGadVg7/c2jO8D+gioXKvQUnVrHWOBxRPqVhE+ACYGad5eG/QB8Crq54zbFYFDhF0grZQZrMBcDMOqlhw/+LCcOfiHgC2B74a9Vrj8GKwMmSFskO0lQuAGbWOZL+hWYN/69lLR4RfwbeQfGCobrZhOIYYxsHFwAz65Ry+J+Lh/+YRcSFwKezc4zgQ5Lq+kKjWnMBMLPOaNh3/l+qw/CfJyIOB/43O8cIviFpq+wQTeMCYGadMGT4N+E0uS9FxFezQwzjU8DF2SGGMQU4SdIq2UGaxAXAzFpP0mvw8J+wiHga2AG4MzvLMF5IcVzw87ODNIULgJm1Wjn8z6UZw3+fug7/eSLifmA68I/sLMNYF/ihJGUHaQIXADNrrQYO//2zQ4xFRPwO+Eh2jhHsAHwxO0QTuACYWSt5+A9WRPwIOCQ7xwi+LGladoi6cwEws9aRtAHNuee/b9OG/xB7A2dlhxiGgBmS1s4OUmcuAGbWKuXwPxdYJjvLGOwbEV/JDjFeETEXeA9wc3aWYSxBsSmwCSUwhQuAmbWGh3/1IuJvwDTg0ewsw3gFcKKkydlB6sgFwMxaoWHDf782DP95IuJGYGdgbnaWYbyR+u5VSOUCYGaNJ2l9mjX8v5wdot8i4hfAl7JzjOC/JO2SHaJuXADMrNHK4f8bPPzTlW8sPCk7xwj+V9JG2SHqxAXAzBqrYcP/y20e/kN8EPhDdohhLAqcImn57CB14QJgZo3UsMv+X46I/bJDVCEinqDYFPhAdpZhvAQ4WdLC2UHqwAXAzBpH0qsphv8Ls7OMQWeG/zwRcQfwDmB2dpZhbAoclh2iDlwAzKxRyuH/Gzz8ay0ifgvsnp1jBB+W9KnsENlcAMysMRo2/L/S1eE/T0R8D/hBdo4RfFPSltkhMrkAmFkjNHD475sdoiZ2Ay7NDjGMKcBJklZOzpHGBcDMak/Senj4N1JEPAW8HbgrO8swlqU4Lvj52UEyuACYWa01bPjv7+H/XBFxHzAdeDI7yzDWA46VpOwgVXMBMLPaGjL8l83OMgb7R8Q+2SHqKiKuAj6anWME7wC+kB2iai4AZlZLHv7tExHHA4dm5xjBVyRtlx2iSi4AZlY7ktalOcP/qx7+PdkLODs7xDAEHC9p7ewgVXEBMLNaKYf/eTRn+Nf1BTi1FBFzgHcD/y87yzCWoNgUuHR2kCq4AJhZbXj4d0NE/A3YDngsO8swXgH8RNLk7CCD5gJgZrXQsMv+X/Pwn5iIuAF4LxDZWYaxDXBwdohBcwEws3SSXkUx/F+UnWUMvhYRX8wO0QYRcTpQ1/0Tn5H03uwQg+QCYGapyuF/Hh7+XfU14GfZIUZwpKQNHfRygQAAHZJJREFUs0MMiguAmaVp2PA/wMO//yIigA8A1yRHGc6iwCmSls8OMgguAGaWooHDv3MHxVQlIh4HpgEPZGcZxkrAzyUtnB2k31wAzKxyktbBw9+GiIg/Ae8CZidHGc5U4HvZIfrNBcDMKtWw4X+gh391IuJ84D+zc4zgI5J2yw7RTy4AZlaZIcN/uewsY3BgRHw+O0TXRMR3gaOzc4zgfyS9ITtEv7gAmFklPPytB7sCM7NDDGMK8FNJKyfn6AsXADMbuPJ89aYM/4M8/HNFxFPA24G7s7MMY1ngVEmLZQeZKBcAMxuocvifT3OG/97ZIQwi4i/AdODJ7CzDeDVwbHaIiXIBMLOB8fC3iYiIK4GPZecYwTslNXqDqAuAmQ1Ewy77H+zhX08RMQP4RnaOEewvadvsEOPlAmBmfTdk+L84O8sYHBwRe2WHsFF9DjgnO8QwBBwvaa3sIOPhAmBmfVV+MfTwt76JiDnAjsCt2VmGsSRwmqSlsoP0ygXAzPqmHP7n4+FvfRYRD1McF/xYdpZhvBL4iaRGzdRGhTWz+mrY8D/Ew795IuI6YBcgsrMM403AwdkheuECYGYT1sDhv2d2CBufiDgN2C87xwj2kLRzdoixcgEwswmRtCbNuefv4d8O+wMnZ4cYwQ8k/Ut2iLFwATCzcSuH//lAE96X/nUP/3aIiADeB/wxO8swFqU4KbD2hdgFwMzGpYHD/3PZIax/IuJxik2BD2ZnGcZKwM8lLZwdZDQuAGbWMw9/q4OIuB14FzA7O8swNgO+mx1iNC4AZtYTSWvQnOF/qId/u0XEecBnsnOM4KOSPpkdYiQuAGY2ZuXwv4DmDP/PZoewwYuIbwPHZOcYwbckvT47xHBcAMxsTBr4nb+Hf7fsClyWHWIYU4CfSXp5dpD5uQCY2QINGf4rZGcZg//28O+eiJgFvB24JzvLMJaleDJgsewgQ7kAmNmoGjj898gOYTki4l5gOjArO8sw1qdmtymmZAew+pA0BXgRxSXeFwPLAI8CD8z7iIi/5SW0qklaHQ9/a5CIuELSx4Fjs7MM412S/hARB2QHAReAzipf17o1sBWwGsXAX5bi9Zaj/b7ZFM/d3kGxGex84KLymVxrkXL4X4CHvzVMRPxQ0vrA7tlZhrG/pGsi4hfZQUTeSxXWiogbk9buHEnLUwz8N5Y/rtjHT/80cAXFcbDnARdHRB2fy7UxGvKdfz//ngzKNyKiro+BWRJJk4GzKL7e1c2jwMYRcWN5psYNGSFcAFqufPxkb4o3VVXlDuB/gB9ExN8rXNf6wMPf2kLSMsCVwKrZWYZxM7AxxS3XlALgTYAtpMJ2kmZSXMKtcvgDvBz4JvBnSV9rwpnYVpD0Sjz8rSUi4iGK44Lr+I3I6sCPSZzDvgLQIuUmvp2APYG1k+MMNQs4Djg4Im7NDmPDK4f/BTRj+H8zIv4rO4Q1g6TpwM9ZwB6nJKdRlJTKuQC0RLmp70fAq7OzjOIJinLyvfJtXlYTHv7WdpL2A/bNzlEnvgXQApI+BfyOeg9/gMWA7wC/lrRSdhgrNOyyv4e/jdeXgVOyQ9SJC0CDSVpO0pkUQ3XR7Dw92Br4o6T3ZgfpuiHD/yXZWcbgfzz8bbzKq47vA67NzlIXLgANJektwB+Bt2RnGaelgBmSfibphdlhukjSK2jW8P/P7BDWbOVTSdOAh7Kz1IELQMOUO/wPAM4ElsvO0wc7AFdKWic7SJeUw/8CPPytYyLiNmBHYE52lmwuAA0i6XnASRTP9bfJKsBMSW/LDtIFDRv+3/Lwt36LiHOBzp8c6QLQEOWz9BcA70iOMihLAKdJ8lvcBqiBw7+OR7laC0TE/wA/zM6RyQWgASStS3HU7muzswzYJOAQScdKWjg7TNs07J6/h79V4eMUX1s7yQWg5iT9G3AJ8LLsLBV6P3C+pDbscagFSatRDP8mPH7p4W+ViIhZFK8Pvjc7SwYXgBqTtBtwBsXl8a6ZClwhab3sIE1XDv8LaMbw/7aHv1UpIu4B3k5xYmmnuADUkKTJkr4FfBeYnJ0n0cuBSyRtnx2kqRo4/D+dHcK6JyIuA3bNzlE1F4CakbQEcDrwH9lZamJx4GRJbXvyYeA8/M3GLiKOAb6dnaNKLgA1IumlwMU093CfQRFwgKTjJTXpxMM0klalOff8v+PhbzXxGeC87BBVcQGoCUkbUuxG9T3vke0MXCBp+ewgdVYO/wuAlyZHGYvvRISvdlktRMRs4F3A7dlZquACUAOS3g5cCHiwLdjGFCcHbpAdpI48/M0mJiIepDgu+PHsLIPmApBM0p7Az4DnZWdpkJWAiyXtkB2kTho2/L/r4W91FRF/pHhxUKtfW+4CkETSQpKOAg6iuMdtvVkM+KmkfbKD1EEDh/+/Z4cwG01EnAzsn51jkERew1krIm5MWjuVpKWBnwNbZmdpiROBD0bEP7KDZJC0CsXwb8JhUR7+1hiSBJxCcUugdXwFoGLlo1kz8fDvpx2BCyWtmB2kah7+ZoMTEQHsAlyXnWUQXAAqJGkL4HJgjewsLbQhxebADbODVKVhw/97Hv7WRBHxGMUVgIezs/SbC0BFJO0CnAu8MDtLi61IcSXg3dlBBq2Bw/9T2SHMxisibqW40jgnO0s/uQAMmAr7A8cBfsPd4D0P+LGkr5T371rHw9+sehFxDvC57Bz95AIwQOWpdT8GvpidpYO+RPGUwGLZQfpJ0soUJ/w1Yfgf5uFvbRIR3wBmZOfoFxeAASlfZXs+xWUjy7EDxXkBTXg0boHK4X8BxUuS6u6wiNgtO4TZAHwMuDI7RD+4AAyApLUpNvttkp1lAp6i2Pn6QHaQCdqA4rXCTf7fwsPfrCYi4klgOvCX7CwT5QLQZ5K2AS4FVk6OMh63Ah8C1gUWj4hXRcSLKI4o3ho4gWaejLU8xTsE3psdZDwaNvwPB3zZ31otIu4G3k7xjVJjuQD0kaRPAGcCL8jO0qMngC8A60TEMRFxbUQ8Pe8nI+K+iPhNRLyX4iz+i7OCTsAiwAxJBzZpc2ADh/9u5bPTZq0WETOBT2bnmAgXgD6QNEnSNyi+AE7JztOj64F1I+KAiJi1oF8cEVdGxBbA3jTzasBewCmSFs8OsiCSXk6xj8TD36yGIuIo4LvZOcbLRwFPkKTnU+z03zY7yzicA7wzIh4Zz2+WNA04Hqj9MB3GNcB2EXFHdpDhlMP/AppxK8nD3zpL0hTg1zTwdFdfAZgASS+huBzexOF/BPCW8Q5/gIg4DdgMqOUQXYD1KDYHbpYdZH4NG/7fx8PfOiwiZgPvAv6UHKVnLgDjJOk1wBXA+tlZejQX+ExEfKL8izshEXEN8Frgkgknq95ywHmSPpAdZJ4GDv9Pevhb10XEAxTHBT+enaUXLgDjIGl74EKKo2eb5HFgenmYRd9ExP3AVsCx/fy8FVkYOEbS1yWl/vfg4W/WXOU3Qx/IztELF4AeSdqD4lW+z8/O0qO7gS0i4vRBfPKIeCoiPgh8luIqQ9PsAZwuaYmMxSW9jGLD38oZ6/foCDz8zZ4jIn4GfDU7x1h5E+AYlRs9DgM+mp1lHK4Gti2fXR04SW8FfgQsWcV6fXYdxZ/V7VUtWA7/C4BVqlpzAo4AdvXwNxte+ZjxaTRgb5ivAIyBpKWAX9HM4X86xXf+lQx/gIg4E5gK3FbVmn20DsXmwNdVsZiHv1m7lP997AzckJ1lQVwAFkDSqhQn+22dnWUcvkFxz7/yjSkRcR3F5sDfVr12HywLnCvpI4NcxMPfrJ0i4jGKTYF/y84yGheAUUiaClwGrJWdpUezgU9ExGciIu1+fEQ8CLwRODIrwwQsBBwp6X8kTe73J2/Y8P9fPPzNehIRtwDvBuZkZxmJC8AIJO0EnAe8KDtLjx6heL7/iOwgABHxdER8DNidGv+HMIpPA2dK6tvxzuXbCc+nOcP/Ex7+Zr2LiLMpTh+tJReAYUjal+LFN4tkZ+nR7cDUiDgnO8j8IuJbwFspCkrTvAm4TNIrJvqJyuF/AbDqRD9XBTz8zSYoIg6lmCe14wIwhKRFJJ0A7JedZRxmAhtHxPXZQUZStuFNgFuys4zDmsDlkrYa7ydo2PA/Eg9/s375CHBVdoj5uQCUJC0L/AbYKTvLOPwE2Coi/podZEHKRz83pvizbpplgLMl7drrb2zg8P+4h79Zf0TEk8B04L7sLEO5AACS1gQupzjXvmn2B3Yq/4I1QkQ8DLyZ4lyFppkCHCbpu+XZEAvk4W9mEXEXsAPwVHaWeTpfACT9K8Xl8yZ8cR5qFrBLROzTxC/WETE7InYDdqN4aqFpdgN+JWnp0X6RpJUoNvw14e+Xh7/ZAEXEJRRfO2qh0wVA0keBs4ClsrP06AFg64g4PjvIREXEYRRXAx7OzjIOW1PsC1hjuJ8sh/8FwGpVhhqnH+DhbzZwEfEDanL1s5MFQNIkSV+n2OU8psu4NXITsElEXJwdpF8i4jcU+wIaczT0EK+keEJgm6H/sIHD/2Me/maV+TQ1OCStcwVA0mIUL/PZIzvLOJwHbBoRt2YH6bfy0IxNgLOzs4zDUsAvJf07ePib2ejKV7G/A7gjM0enCoCkFSle47t9dpZxOAp4c7mBrpUi4hGKswK+lZ1lHCYD35Z0NMU9/yYM/6Pw8DdLEREPUMyiJ7IydOZtgJLWB84AVqpqzT4JYK+IOCQ7SJXK/RnfoziS1/rvKOCjHv5muSTtAhyXsXYnrgBI2ha4iOYN/yeAd3Rt+ANExJEU7xF4MDtLC3n4m9XHlVkLt74ASNodOBVYPDtLj+4FXh8RJ2cHyRIRv6V4o+B12Vla5Gg8/M2MFhcASVMkHQZ8k+b9e/6B4ljf2h0dWbWIuA2YCpyZnaUFjgY+4uFvZtC8wTgmkpakGBg9H9laA2cCm0fEndlB6iIiHgW2Aw7NztJgHv5m9iytKwCSVgYuBbYZ/VfW0reBaRHx9+wgdRMRcyPis8AHqdFRmg3h4W9mz9GqAiBpE4oz/dfJztKjOcCnIuLTETEnO0ydRcSxwFbA/clRmuIYfM/fzIbRmgIgaUeK56+Xy87So0eBt0XE97KDNEV5nvZrgWuys9TcMRTf+c/NDmJm9dOKAiDpi8CPgUWzs/ToDmCziDgrO0jTRMQdFG9vPC07S015+JvZqBpdACQtLOk4ilfiKjtPj66g2Ol/bXaQpir3SkwHDsrOUjMe/ma2QI0tAJJeCJwL7JKdZRx+CrwhIu7LDtJ0Udib4u/BrOw8NXAsHv5mNgaNLACSVgcuA7bIzjIOBwA7RsQ/soO0Sflq5DcAf0mOkulY4MMe/mY2Fo0rAJK2pBj+r8jO0qOngA9GxBe8I3swIuIyYCPg6uwsCY7Fw9/MetCoAiDpQxSvi106O0uPHgK2KR9hswGKiLuAzSle+dwVP8TD38x61IgCoMJBFC8xadrb4W4BNinPtbcKRMQTwDspNoe23Q+BD3n4m1mval8AJD2PYtPcntlZxuG3FMP/luwgXVNuDtwHeDfQ1v0WHv5mNm61LgCSlqcYojtkZxmHH1Jc9n8oO0iXRcSJwOuAe7Kz9JmHv5lNSG0LgKT1KJ6V3yg7S48C+EJEfCAifGZ9DZRvVdwIaMvbFY/Dw9/MJqiWBUDSW4CLgZdmZ+nRPyge8TsgO4g9W0TcQ3El4CfZWSboOIqnSTz8zWxCalcAJP07cDqwRHaWHt0HbBkRP80OYsOLiH9ExHuAfSiu1DSNh7+Z9U1tCoCkyZK+Q/FK3MnZeXp0LcWxvpdnB7EFi4j9KZ4SeCI7Sw9m4OFvZn1UiwIgaQngDOBT2VnG4SyKF/rckR3Exi4ifk5xXsCd2VnGYAbwAQ9/M+un9AIg6WXAJcC/ZWcZh8MoXuX7aHYQ611EXE3xWuHLsrOMwsPfzAYitQBIei1wObBuZo5xmAvsHhG7RcSc7DA2fhHxF4p3CByfHGU4Hv5mNjCZBeAdwAXA8okZxuPvwHYR8a3sINYfETErInYB9qYod3VwPB7+ZjZAopm7obPcCWwbEX/IDmKDIWk74ARg8cQYxwPv9/A3az9JawI3ZKydvgegQa6i2Onv4d9iEXE6MBXI2tTp4W9mlXABGJtTgNdHxL3ZQWzwIuKPFCcHXlzx0ifg4W9mFXEBWLBDgB3KN8xZR0TEX4F/BY6paMkTgPd5+JtZVVwARvY08JGI2DMivE+igyLiqYj4ELAHg90c6O/8zaxyLgDD+xvw5og4KjuI5YuI/wa2BQZx3sMMiuHvx0nNrFIuAM91K7BpRJyXHcTqIyJ+CWwK3NzHT7s/Hv5mlsQF4NkuBjaJiBuzg1j9RMT1wAbAd5nY47MPAO+JiH18e8nMsrgA/NPxwNYR8UB2EKuviHgiIv4deD3wK3orAk8ABwKrRUTTX0tsZg3ng4AK+0bEV7JDWPNIWgvYkeL2wMbAC4b89FPA7cDvKB4l/VVEPF55SDOrrcyDgLpeAGZRvGL1x9lBrB0kLUpxiuBCwH3e2W9mo8ksAFMyFq2JvwLTImJmdhBrj4h4EngyO4eZ2YJ0tQBcT/Ea39uzg5iZmWXo4ibAc4CpHv5mZtZlXSsA/wu8JSIeyQ5iZmaWqSsFYC7wmYj4eETMzg5jZmaWrQt7AB4Hdo6I07KDmJmZ1UXbC8DdwLYRcXV2EDMzszpp8y2Aq4GNPfzNzMyeq60F4HRgi4i4OzuImZlZHbWxAHwDmO4jV83MzEbWpj0As4FPRcQR2UHMzMzqri0F4BHgnRFxTnYQMzOzJmhDAbid4ljf67ODmJmZNUXT9wDMpNjp7+FvZmbWgyYXgJ8AW0XEX7ODmJmZNU1TC8D+wE7lq1fNzMysR03bA/AU8OGIOD47iJmZWZM1qQA8CGwfERdnBzEzM2u6phSAm4C3RsSt2UHMzMzaoAl7AM4DNvXwNzMz65+6F4CjgDdHxMPZQczMzNqkrgUggD0j4iMR8XR2GDMzs7ap4x6AJ4BdIuLk7CBmZmZtVbcCcC+wXURclR3EzMyszepUAK6hONP/zuwgZmZmbVeXPQBnApt5+JuZmVWjDgXg28C0iPh7dhAzM7OuyLwFMAf4dER8LzGDmZlZJ2UWgJ0j4sTE9c3MzDor8xbAHxLXNjMz67Q67AEwMzOzirkAmJmZdZALgJmZWQe5AJiZmXWQC4CZmVkHuQCYmZl1kAuAmZlZB7kAmJmZdZALgJmZWQe5AJiZmXWQC4CZmVkHuQCYmZl1kAuAmZlZB7kAmJmZdZALgJmZWQe5AJiZmXWQC4CZmVkHuQCYmZl1kAuAmZlZB7kAmJmZdZALgJmZWQe5AJiZmXWQC4CZmVkHuQCYmZl1kAuAmZlZB7kAmJmZdZALgJmZWQe5AJiZmXWQC4CZmVkHuQCYmZl1kAuAmZlZB7kAmJmZdZALgJmZWQe5AJiZmXWQC4CZmVkHuQCYmZl1kAuAmZlZB7kAmJmZdZALgJmZWQe5AJiZmXWQC4CZmVkHuQCYmZl1kAuAmZlZB7kAmJmZdZALgJmZWQe5AJiZmXWQC4CZmVkHuQCYmZl1kAuAmZlZB7kAmJmZdZALgJmZWQe5AJiZmXWQC4CZmVkHTQIicW0zM7Muy5qFMQl4PGnx5ZLWNTMzq4usWfj4JOCxpMVXTFrXzMysLrJm4WOZBWCFpHXNzMzqImsWphYAXwEwM7Ou6+QVABcAMzPrutQC8GjS4i4AZmbWdVmz8NFJwANJi6+UtK6ZmVldZM3CByYBNyUtvqqkVZLWNjMzS1XOwFWTlr8pswAAbJ+4tpmZWabMGegCYGZmliRzBt4oYCHgCWBKQoA5wPIRkbUPwczMrHKSlgX+AkxOWH42sNikiHgauC0hABT/4tsmrW1mZpZlW3KGP8BtEfH0vJcQ3JgUAnwbwMzMuif18j/88y1ElyYG2UaSjwU2M7NOKGfeNokRLoV/FoDzEoMsCuyXuL6ZmVmV9qOYfVnOA1BEIGky8BCwZFKY2cCrIiLziQQzM7OBkrQGcC05G++hOP13mYiYMwkgIuYAFyaFgeIP4sDE9c3MzKpwIHnDH+DCcuY/cwsAcm8DAEyXtGlyBjMzs4EoZ9z05BjPzPqhBeD8hCDzOyQ7gJmZ2YDUYcY9M+uHFoA/AH+qPMqzbS7pg8kZzMzM+qqcbZsnx/gTxawHhhSAiAhgRkKg+R3uWwFmZtYW5Uw7PDsHMKOc9UD5FMAz/4/0SuDmjFTzuQ/YKCLuzA5iZmY2XpJeClwJvDg7C7B6RNwy7/8ZeguA8idmVh7puV4MnCZpsewgZmZm41HOsNOox/CfOXT4w3wFoHRcRWEWZAPgh5KUHcTMzKwX5ez6IcUsq4PnzPZn3QIAkLQ0cC+wSEWhFuRQ4HMxf1AzM7MaKof/IcAe2VlKs4AVIuLhof/wOVcAyl/wo6pSjcEewEm+HWBmZnVXzqqTqM/wBzhh/uEPw1wBAJC0OnADw98iyHI1MM0bA83MrI7KDX+nUZ/L/gBzgLXmv/8PIwz4iLgZ+OmgU/VoA+BKPyJoZmZ1U86mK6nX8Ac4abjhDyNcAQCQtB7we6Bum/BmAbtGxDHZQczMzMpDfg6nPnvn5glgvYi4drifHPESf0RcA5wxqFQTsAhwtKSLfDXAzMyySNpU0kXA0dRv+AOcOtLwh1GuAABIei1w+SBS9dEpwN5+lbCZmVWhfKXvgeS/2Gc0QXGg3u9G+gWjbvKLiCuox/HAo5kOXCvp+5JWyA5jZmbtJGkFSd8HrqXewx/g2NGGPyzgCgCApOWAm4Cl+hhsUJ4Efg2cCpwREQ8k5zEzswaTtCywLbA9sA2waG6iMXkYWCMi/jraL1pgAQCQ9Enge30KVpU5wCUUZeDUiLg9OY+ZmTWApFUoBv72wGbA5NxEPftERByxoF801gIwiWIvwIZ9CJblNuAu4J4hH/eWP94PzM2LZmZmFZoELAesCKxQ/jjvYyVg1bxoE3YlsElELHCmjakAAEjakKIE1OlwIDMzMyvMBV67oHv/84x5mEfEVRRnG5uZmVn9HDLW4Q89XAEAkDQFOB/YfBzBzMzMbDAuBraMiNlj/Q09FQAASS+hOCFw2d6ymZmZ2QA8AKwfEXf38pt6vp9fLrALxSEDZmZmlieAXXod/jDODX0RcRZw0Hh+r5mZmfXNQeVM7lnPtwCe+Y3SZIrXHr51XJ/AzMzMJuJMYFpEzBnPbx53AQCQtBhwLuCX8piZmVVnJrB1RDwx3k8woQIAIGkZ4CJg7Ql9IjMzMxuL64EtIuKhiXySCRcAAEkvBS6lOEHJzMzMBuMuYGpE3DnRT9SXU/3KIG8CJtRGzMzMbEQPAW/qx/CHPh7rGxHXA1tQtBMzMzPrn7soLvtf369P2Ndz/ctgUynuT5iZmdnEXU9x2b+vs7XvL/YpL01sQbFD0czMzMZvJsV3/n257D/UQN7sV+5M3JriGUUzMzPr3ZkUj/oNZH/dwF7tWz6bOA04EB8bbGZmNlZBMTunTeQ5/wXpy2OAC1xEejMwA79AyMzMbDQPUJztP67jfXtRSQGAZ94i+BP8KmEzM7PhXAy8ezwv9hmPgd0CmF/5L7QlxUuE5la1rpmZWc3NpZiNW1Y1/KHCKwDPWlTaEDgc2LDyxc3MzOrjKmDXiLiq6oUruwIwVPkvujGwG/C3jAxmZmaJ/kYxAzfOGP6QdAXgWQGk5YBDgV1Sg5iZmVVjBrBHRNyfGSLlCsBQEXF/RLyP4orA6fiRQTMza5+gmHEbR8T7soc/1OAKwPwkrQd8HngnNSgoZmZmEzAX+ClwQERckx1mqNoVgHkkrQ7sBewELJIcx8zMrBezgB8BB0XEzdlhhlPbAjCPpKWBHYH3AZsmxzEzMxvNTOA44MSIeDg7zGhqXwCGkvRKis2CuwAr56YxMzMD4E8UG/tmRMQtyVnGrFEFYB5JAl5NcbDQVsDrgCVTQ5mZWVc8ClwInAecD/whGjhMG1kA5idpMvAaijIwFVgTWBWYkpnLzMwabzZwG3AjcCnF0P+/iJiTmqoPWlEAhiNpIWA1YI0hH8tSXClYYr6P5wPKSWpmZhUL4HHgsfk+HqV4Gc9NQz5ujYink3IO1P8Hyl/vRzQwecMAAAAASUVORK5CYII=;" parent="1" vertex="1">
          <mxGeometry x="904" y="334.5" width="52" height="52" as="geometry" />
        </mxCell>
        <mxCell id="ECE6Y4JwWaJ8Y2mSEOKN-38" value="" style="endArrow=oval;html=1;rounded=0;strokeWidth=2;entryX=0.5;entryY=1;entryDx=0;entryDy=0;startArrow=none;startFill=0;endFill=1;dashed=1;dashPattern=1 1;" parent="1" source="ECE6Y4JwWaJ8Y2mSEOKN-7" target="ECE6Y4JwWaJ8Y2mSEOKN-19" edge="1">
          <mxGeometry width="50" height="50" relative="1" as="geometry">
            <mxPoint x="346" y="460" as="sourcePoint" />
            <mxPoint x="400" y="414" as="targetPoint" />
          </mxGeometry>
        </mxCell>
        <mxCell id="624g_YLlc5Atb9BK02qp-1" style="edgeStyle=orthogonalEdgeStyle;rounded=0;orthogonalLoop=1;jettySize=auto;html=1;entryX=0;entryY=0.5;entryDx=0;entryDy=0;strokeWidth=2;" edge="1" parent="1" source="ECE6Y4JwWaJ8Y2mSEOKN-40" target="ECE6Y4JwWaJ8Y2mSEOKN-39">
          <mxGeometry relative="1" as="geometry" />
        </mxCell>
        <mxCell id="ECE6Y4JwWaJ8Y2mSEOKN-40" value="sentence-level processing" style="rounded=0;whiteSpace=wrap;html=1;" parent="1" vertex="1">
          <mxGeometry x="433.76" y="321" width="86.25" height="79" as="geometry" />
        </mxCell>
        <mxCell id="uC-RrAC5BD5aT8woN0bQ-1" style="edgeStyle=orthogonalEdgeStyle;rounded=0;orthogonalLoop=1;jettySize=auto;html=1;dashed=1;endArrow=oval;endFill=1;strokeWidth=2;dashPattern=1 1;" parent="1" source="ECE6Y4JwWaJ8Y2mSEOKN-46" target="ECE6Y4JwWaJ8Y2mSEOKN-40" edge="1">
          <mxGeometry relative="1" as="geometry" />
        </mxCell>
        <mxCell id="ECE6Y4JwWaJ8Y2mSEOKN-46" value="spacy&lt;br style=&quot;border-color: var(--border-color);&quot;&gt;+&lt;br style=&quot;border-color: var(--border-color);&quot;&gt;extraction rules" style="shape=cylinder3;whiteSpace=wrap;html=1;boundedLbl=1;backgroundOutline=1;size=15;" parent="1" vertex="1">
          <mxGeometry x="444.38" y="420" width="65" height="90" as="geometry" />
        </mxCell>
        <mxCell id="CSdKEBYMaSIxPQ20A0uc-1" style="edgeStyle=orthogonalEdgeStyle;rounded=0;orthogonalLoop=1;jettySize=auto;html=1;strokeWidth=2;endArrow=oval;endFill=1;dashed=1;dashPattern=1 1;" parent="1" source="ECE6Y4JwWaJ8Y2mSEOKN-52" target="ECE6Y4JwWaJ8Y2mSEOKN-20" edge="1">
          <mxGeometry relative="1" as="geometry" />
        </mxCell>
        <mxCell id="ECE6Y4JwWaJ8Y2mSEOKN-52" value="process-piper&lt;br&gt;library" style="shape=cylinder3;whiteSpace=wrap;html=1;boundedLbl=1;backgroundOutline=1;size=15;" parent="1" vertex="1">
          <mxGeometry x="777.5" y="414" width="65" height="90" as="geometry" />
        </mxCell>
        <mxCell id="8_euKS4hgkdlGo7dpll--2" value="input" style="rounded=0;whiteSpace=wrap;html=1;" parent="1" vertex="1">
          <mxGeometry x="140" y="221" width="50" height="20" as="geometry" />
        </mxCell>
        <mxCell id="8_euKS4hgkdlGo7dpll--4" value="output" style="rounded=0;whiteSpace=wrap;html=1;" parent="1" vertex="1">
          <mxGeometry x="880" y="221" width="60" height="20" as="geometry" />
        </mxCell>
        <mxCell id="624g_YLlc5Atb9BK02qp-3" style="edgeStyle=orthogonalEdgeStyle;rounded=0;orthogonalLoop=1;jettySize=auto;html=1;entryX=0;entryY=0.5;entryDx=0;entryDy=0;strokeWidth=2;" edge="1" parent="1" source="8_euKS4hgkdlGo7dpll--5" target="ECE6Y4JwWaJ8Y2mSEOKN-20">
          <mxGeometry relative="1" as="geometry" />
        </mxCell>
        <mxCell id="8_euKS4hgkdlGo7dpll--5" value="refinement using LLM model" style="rounded=0;whiteSpace=wrap;html=1;" parent="1" vertex="1">
          <mxGeometry x="646.5599999999998" y="321" width="78.12" height="79" as="geometry" />
        </mxCell>
        <mxCell id="8_euKS4hgkdlGo7dpll--24" style="edgeStyle=orthogonalEdgeStyle;rounded=0;orthogonalLoop=1;jettySize=auto;html=1;strokeWidth=2;endArrow=oval;endFill=1;targetPerimeterSpacing=0;dashed=1;dashPattern=1 1;" parent="1" source="8_euKS4hgkdlGo7dpll--6" target="8_euKS4hgkdlGo7dpll--5" edge="1">
          <mxGeometry relative="1" as="geometry" />
        </mxCell>
        <mxCell id="8_euKS4hgkdlGo7dpll--6" value="GPT-4" style="shape=cylinder3;whiteSpace=wrap;html=1;boundedLbl=1;backgroundOutline=1;size=15;" parent="1" vertex="1">
          <mxGeometry x="653.1199999999998" y="420" width="65" height="90" as="geometry" />
        </mxCell>
      </root>
    </mxGraphModel>
  </diagram>
</mxfile>
